PathFileType	4	(X/Y/Z)	./resultDataOpenSim/trcMotMarkerGrf/sub06/qtm-05-03.trc
DataRate	CameraRate	NumFrames	NumMarkers	Units	OrigDataRate	OrigDataStartFrame	OrigNumFrames
250.000000	250.000000	14	24	m	250.000000	326	520
Frame#	Time	L.Toe.Tip			R.Toe.Tip			L.Ankle.Lat			R.Ankle.Lat			L.Ankle.Med			R.Ankle.Med			L.Heel			R.Heel			L.Knee.Lat			R.Knee.Lat			L.Knee.Med			R.Knee.Med			L.Thigh.Upper			R.Thigh.Upper			L.ASIS			R.ASIS			V.Sacral			L.Acromium			R.Acromium			C7			L.Elbow			R.Elbow			L.Wrist.Lat			R.Wrist.Lat
		X1	Y1	Z1	X2	Y2	Z2	X3	Y3	Z3	X4	Y4	Z4	X5	Y5	Z5	X6	Y6	Z6	X7	Y7	Z7	X8	Y8	Z8	X9	Y9	Z9	X10	Y10	Z10	X11	Y11	Z11	X12	Y12	Z12	X13	Y13	Z13	X14	Y14	Z14	X15	Y15	Z15	X16	Y16	Z16	X17	Y17	Z17	X18	Y18	Z18	X19	Y19	Z19	X20	Y20	Z20	X21	Y21	Z21	X22	Y22	Z22	X23	Y23	Z23	X24	Y24	Z24

326	1.3	0.24673794	0.040501189	-0.0057896646	0.91055847	0.036631056	0.15169888	0.26315058	0.17167585	-0.038404122	0.77503153	0.060209269	0.17420586	0.28692557	0.17569339	0.043937481	0.7960154	0.079655147	0.086929172	0.22482064	0.23203452	0.013252396	0.71939999	0.037792327	0.11502498	0.60411943	0.33134506	-0.081950329	0.85103081	0.43469849	0.21030158	0.60847873	0.31768082	0.039617606	0.81704065	0.42219523	0.088193186	0.59286229	0.7212954	-0.066036233	0.65761666	0.7577325	0.27443477	0.67684249	0.77376282	-0.035587171	0.72533344	0.80195089	0.20067655	0.51629697	0.86385656	0.11511728	0.68524934	1.2764197	-0.06329562	0.65987134	1.2377593	0.29578877	0.59264443	1.2993853	0.11268897	0.72164908	0.95168471	-0.13472114	0.5256381	0.95118743	0.34606194	0.94376414	0.86201511	-0.060772428	0.62147348	0.73574303	0.4095768
327	1.304	0.2578963	0.046359215	-0.0065113676	0.91041579	0.036671896	0.15194179	0.27455188	0.17741163	-0.039185394	0.77486775	0.060190541	0.17429278	0.29815897	0.18139209	0.043106724	0.79605953	0.079721963	0.087066718	0.23608869	0.23811021	0.012008284	0.71933074	0.037801932	0.11495784	0.61634979	0.33385848	-0.083104698	0.85273556	0.43445379	0.21101629	0.62042807	0.3200019	0.038743891	0.81945732	0.42253692	0.088841182	0.59892054	0.72371338	-0.065526242	0.66212467	0.75918658	0.27503631	0.68276401	0.77629073	-0.035213438	0.73068456	0.80363387	0.20182553	0.52190817	0.86609809	0.11535289	0.6901987	1.2787883	-0.063360387	0.66533307	1.2401069	0.29585057	0.59791948	1.3016934	0.11281301	0.7250029	0.95381748	-0.13420858	0.53349757	0.95237139	0.34704603	0.94616709	0.86059914	-0.062525545	0.63270341	0.73808928	0.40928928
328	1.308	0.26921861	0.052094819	-0.007172393	0.91027901	0.036714241	0.15217487	0.28609117	0.18299867	-0.039967585	0.77474971	0.060157185	0.1743565	0.30953296	0.18697541	0.042282622	0.79607088	0.079793859	0.087200996	0.2474814	0.24395423	0.011054812	0.71926167	0.037812601	0.1148241	0.62854919	0.33649907	-0.084147612	0.85437937	0.43428057	0.2117152	0.63239683	0.32242056	0.037936056	0.82170683	0.42295204	0.089441995	0.60501001	0.72617576	-0.065066842	0.66646081	0.76067271	0.27551159	0.68866734	0.77880355	-0.034865986	0.73602225	0.80539438	0.20299927	0.52754861	0.86834525	0.11552096	0.69510469	1.2811955	-0.063435611	0.67077931	1.2425078	0.29590497	0.6031608	1.304045	0.1129273	0.72827614	0.95599454	-0.13372305	0.5413533	0.95363956	0.34798148	0.94842145	0.85923448	-0.064332567	0.64393881	0.74058976	0.40894992
329	1.312	0.28069782	0.057686744	-0.0077831142	0.91015601	0.03674839	0.1523882	0.29773685	0.18843835	-0.040745011	0.77468853	0.060105872	0.17438831	0.32102466	0.19244461	0.041465557	0.79604716	0.079876966	0.087338479	0.2589849	0.24958881	0.010263766	0.71920345	0.037823912	0.11457475	0.64071915	0.33925994	-0.085089513	0.85601437	0.43414617	0.21247542	0.64464717	0.32493136	0.03707721	0.82375738	0.42341089	0.090014853	0.61112728	0.72868433	-0.064697953	0.6706286	0.76216673	0.27585565	0.69456451	0.78129562	-0.034540394	0.74124489	0.80720483	0.20411676	0.53324186	0.87059725	0.11562319	0.69997692	1.2836338	-0.063513656	0.67622039	1.244977	0.2959573	0.60837946	1.3064301	0.1130361	0.73146515	0.95822054	-0.13326683	0.54914833	0.954976	0.34883838	0.95054146	0.85792467	-0.066192986	0.65515094	0.74323127	0.40856061
330	1.316	0.29232775	0.063115341	-0.008359148	0.91005974	0.036765847	0.15256596	0.30946868	0.19371873	-0.041512036	0.77465955	0.060036511	0.17439601	0.33262258	0.19778865	0.040655647	0.79600946	0.079958838	0.087461233	0.27059166	0.25508165	0.009341365	0.7191673	0.037830246	0.11423533	0.65287037	0.34213638	-0.085936766	0.85765368	0.43399661	0.21330352	0.65741039	0.32751757	0.036079775	0.82558792	0.42388766	0.090577657	0.61725937	0.7312404	-0.064443672	0.67473927	0.76369575	0.27613175	0.70049916	0.78378276	-0.034227024	0.74630314	0.80905536	0.20513528	0.53901684	0.87284934	0.11566492	0.70482386	1.2860974	-0.063588316	0.68165922	1.247521	0.29600725	0.61357825	1.3088376	0.11314497	0.73457308	0.96049662	-0.1328035	0.55688337	0.95638398	0.34961938	0.95255341	0.85667766	-0.068115134	0.66634573	0.74602126	0.40813248
331	1.32	0.30410008	0.068365936	-0.0089106366	0.90999979	0.036762562	0.15269604	0.32127507	0.19882761	-0.042263071	0.77461971	0.059961902	0.17439858	0.34432105	0.20298888	0.039853905	0.79597732	0.080028886	0.087556907	0.28228875	0.26043708	0.0081973597	0.71915658	0.037824252	0.11390473	0.66503446	0.34512834	-0.086701944	0.85927795	0.43380188	0.21414817	0.67054794	0.33017956	0.035015761	0.82722846	0.4243582	0.091117492	0.6234092	0.73383822	-0.06429621	0.67887001	0.76529374	0.27637041	0.70651896	0.78629689	-0.03395827	0.75128441	0.81098075	0.20609711	0.54487159	0.87510097	0.11565916	0.70965037	1.2885838	-0.063659788	0.68709352	1.2501329	0.29605018	0.61875745	1.3112644	0.11325286	0.73760333	0.96281292	-0.13231452	0.56457561	0.95786697	0.35033684	0.95447241	0.85550393	-0.070107864	0.67752914	0.74896481	0.40767074
332	1.324	0.31601097	0.07342723	-0.009439332	0.90996611	0.036745086	0.15278444	0.33315131	0.20375854	-0.042989874	0.77455046	0.059902894	0.17440757	0.35611296	0.20802749	0.0390622	0.79595377	0.080088448	0.087628278	0.29405866	0.26558681	0.0069997298	0.71915796	0.037808438	0.11366384	0.67724449	0.34824335	-0.087405144	0.86081475	0.43359201	0.21490281	0.68358103	0.33296345	0.034080339	0.82872788	0.42479982	0.091600938	0.62960273	0.73646806	-0.064239321	0.6830322	0.76696637	0.27655983	0.71264214	0.78887757	-0.03376281	0.75629903	0.8130172	0.20705492	0.55074266	0.87737206	0.11562874	0.7144606	1.2910906	-0.063728827	0.69252367	1.2528024	0.29608364	0.62392118	1.313716	0.11335445	0.74055826	0.96516219	-0.13183155	0.57222438	0.95942368	0.35099723	0.95628132	0.85441071	-0.07217189	0.68869795	0.75205769	0.40717498
333	1.328	0.32806239	0.078286809	-0.0099477714	0.90993235	0.03672865	0.15285178	0.34509791	0.20850518	-0.043689761	0.77446567	0.059870477	0.17442079	0.36799114	0.21289121	0.038283608	0.79593247	0.080142507	0.087681176	0.30588652	0.27046889	0.0059230903	0.71914785	0.037796352	0.11352611	0.6894779	0.35148975	-0.088042255	0.86215566	0.43340801	0.2154381	0.69618044	0.33591788	0.033397594	0.8301155	0.42519139	0.092000013	0.63586199	0.7391337	-0.06426605	0.68722221	0.76869162	0.27668783	0.71882938	0.79154512	-0.033596255	0.76136828	0.81516529	0.20800455	0.55654586	0.8796919	0.11559731	0.71926065	1.2936119	-0.063794518	0.69795486	1.2555224	0.29611	0.62907416	1.3161986	0.11345149	0.74343849	0.9675511	-0.13138352	0.57981341	0.96105295	0.35160205	0.95794919	0.85339514	-0.074300317	0.69983874	0.75528626	0.40664024
334	1.332	0.34025281	0.082932145	-0.010445299	0.90988057	0.036723958	0.15291276	0.35711221	0.21305431	-0.044369045	0.77438506	0.059861051	0.17443111	0.3799531	0.21756559	0.037521385	0.79590612	0.080194114	0.087720568	0.31775814	0.27506937	0.0050039502	0.71911245	0.037798337	0.11346311	0.70166202	0.35486666	-0.088584734	0.8632305	0.43324686	0.21569336	0.70839788	0.33904812	0.032942853	0.83139114	0.42551572	0.092305799	0.64218602	0.74186083	-0.064314515	0.69145063	0.77044279	0.27675961	0.72500723	0.79428221	-0.033350385	0.76646079	0.81740559	0.20891457	0.56223734	0.88206636	0.11557762	0.72405779	1.2961411	-0.063856842	0.7033911	1.2582884	0.29613201	0.63421658	1.3187109	0.11355254	0.74624452	0.96998762	-0.13096873	0.58733094	0.96275009	0.35215311	0.95946694	0.85244832	-0.076485918	0.71092887	0.75862883	0.40605952
335	1.336	0.35257841	0.087351625	-0.010947688	0.90981138	0.036731935	0.15296771	0.36918525	0.21739152	-0.04503426	0.77431637	0.059865953	0.17443412	0.39199757	0.22203327	0.036780431	0.79586872	0.080245306	0.087750729	0.32965908	0.27940136	0.0041964476	0.71905487	0.037812121	0.11343845	0.71377262	0.35836468	-0.08903174	0.86409274	0.43311068	0.21571581	0.72043038	0.34233564	0.032635912	0.83249996	0.42576807	0.092538426	0.64855966	0.74468089	-0.064233825	0.69575808	0.77221607	0.2768071	0.7311288	0.79705167	-0.032946279	0.77155314	0.81971962	0.2097652	0.56783546	0.88446995	0.11556907	0.72885718	1.2986746	-0.063916813	0.70883168	1.2610964	0.29614979	0.63934484	1.3212412	0.11366005	0.74898117	0.9724694	-0.13058588	0.59478817	0.96450439	0.35265668	0.96084884	0.85156649	-0.078723654	0.72195618	0.76206992	0.40543309
336	1.34	0.36504426	0.091531115	-0.011470958	0.90972959	0.036751091	0.15301317	0.38131009	0.22151148	-0.045684804	0.77425534	0.059879021	0.17442903	0.40411684	0.22628175	0.036067608	0.79581544	0.080298334	0.08777418	0.3415782	0.28347806	0.0034467519	0.71898462	0.03782848	0.11342595	0.72585677	0.36197339	-0.089414238	0.86488946	0.43305311	0.21559823	0.7324024	0.34576762	0.0324226	0.83335993	0.42596141	0.092727619	0.65497069	0.7475959	-0.06395508	0.70021527	0.77403304	0.27688693	0.7372005	0.79982928	-0.032385093	0.77664834	0.8220935	0.21055216	0.5733972	0.88687281	0.1155647	0.73365773	1.3012109	-0.063975957	0.71427451	1.2639424	0.29616311	0.64445627	1.3237734	0.11376508	0.75165801	0.97498692	-0.1302272	0.60222482	0.96630775	0.35312563	0.9621077	0.85075361	-0.081010019	0.73293182	0.76561059	0.40476973
337	1.344	0.37766267	0.095455822	-0.012024951	0.90963158	0.03678303	0.15305176	0.39349134	0.2254147	-0.046315286	0.77419206	0.059899092	0.17441745	0.41629502	0.23030515	0.035387467	0.79574408	0.080354618	0.087791617	0.35350824	0.28729914	0.0027258357	0.71890814	0.0378409	0.11341431	0.73793588	0.36568345	-0.089737131	0.86570771	0.4331152	0.21540945	0.74434545	0.34933908	0.032282869	0.83397091	0.42611673	0.092860748	0.66143703	0.75056455	-0.06366996	0.70488114	0.77591268	0.2770449	0.74327126	0.80261362	-0.031711525	0.78177672	0.82451709	0.21128241	0.57896908	0.88926443	0.11555842	0.73845246	1.303745	-0.064036102	0.71971717	1.2668204	0.29617286	0.64955368	1.3262987	0.11385762	0.7542862	0.97752596	-0.12985088	0.60969897	0.96816363	0.35357919	0.96324499	0.85001307	-0.083344454	0.74387273	0.76925518	0.40407516
338	1.348	0.39044346	0.099117744	-0.012611398	0.90951042	0.036829941	0.1530893	0.40574145	0.22909659	-0.046922021	0.77411409	0.059929662	0.17440468	0.42851109	0.23409554	0.03473978	0.79565723	0.080412473	0.087800873	0.36544326	0.29085019	0.002035233	0.71882682	0.037847746	0.1134042	0.74997445	0.36948812	-0.08997393	0.86653014	0.43326984	0.21518365	0.75625323	0.35304581	0.032212895	0.8344361	0.426249	0.092877312	0.66801816	0.75353824	-0.063680529	0.70974564	0.77784596	0.27727256	0.74941796	0.80541947	-0.030969913	0.78697332	0.8269794	0.21196934	0.58455544	0.89165247	0.11554753	0.7432362	1.3062686	-0.064096051	0.72515482	1.269722	0.29617942	0.65464356	1.3288184	0.11393868	0.75687731	0.9800672	-0.12937433	0.61725906	0.97008196	0.35403719	0.96425858	0.84934148	-0.085725231	0.75478433	0.77299778	0.40334789
339	1.352	0.40339518	0.10251751	-0.013226306	0.90937186	0.036887054	0.15312307	0.41806744	0.23254414	-0.047504656	0.77400218	0.059978062	0.17440246	0.44074439	0.23763865	0.034125586	0.79556272	0.080465933	0.08779437	0.37737814	0.29411188	0.0013920694	0.71873823	0.037848413	0.11340506	0.76194891	0.37338694	-0.090115601	0.86733375	0.43346044	0.21493679	0.76812468	0.35687993	0.032211305	0.83484392	0.42636616	0.092733094	0.67475036	0.75650345	-0.064062353	0.71471934	0.77979603	0.27750451	0.75569697	0.80827822	-0.030199329	0.79223234	0.82945937	0.21262481	0.59012554	0.89404814	0.11553527	0.7480113	1.3087754	-0.06415043	0.73058245	1.2726393	0.29618303	0.65972855	1.3313361	0.11401889	0.75944187	0.98259409	-0.12870419	0.62491112	0.97206314	0.3545109	0.9651481	0.84873375	-0.088143542	0.7656642	0.77682678	0.40258743
